<svg xmlns="http://www.w3.org/2000/svg" viewBox="80 285 460 325" fill="white">
  <path fill-rule="evenodd" d="M312.4 302.4c-10 3.1-18.4 12.3-20.4 22.2-3 14.1 5.6 29.3 19.1 34.1 3.4 1.2 4.9 2.3 4.9 3.6 0 3.1-9 37.8-12.2 47.2-7.5 21.7-17.3 39.7-27.5 50.6-13.1 14-24.2 13.9-39.1-.5-8.4-8.1-14.8-16.8-21.6-29.7-5.9-11.1-6.6-13.6-4.1-14.6 3.2-1.2 7.6-9.2 8.2-14.7 1-9.4-2.6-16.7-10.5-21.3-14.7-8.6-33.6 3.7-32 20.8 1.1 11.3 9.7 19 21.2 19.3l6.3.1 1.4 10c.8 5.5 1.4 16.7 1.3 25-.1 13-.4 16.1-2.6 23.2-4.5 14.8-11.6 23.8-20.7 26.3-5.4 1.4-15.9 0-24.4-3.5-7.1-2.8-24.6-13.2-30.1-17.8-3.7-3.2-3.8-3.3-2.7-7.2 2.1-7.6-2.1-16.3-9.3-19.6-7.4-3.4-16.8-1.7-21.8 3.8-4.8 5.3-6 14-2.8 20.2 4.4 8.8 12.4 11.6 24.1 8.6 2.3-.6 2.9-.2 5.4 4.2 4.9 8.5 59.5 100.4 60.1 101.1.1.2 4.4-.3 9.6-1.2 32.4-5.4 118.6-10.3 149.8-8.6 8 .5 21.3 1.1 29.5 1.5 25.3 1 60.7 4.3 78.3 7.2 5.1.8 9.5 1.4 9.7 1.2.3-.4 12.4-20.8 45.5-76.7 16.6-27.9 17.5-29.3 20-28.7 7.7 1.8 10.9 1.7 15.5-.5 10.7-5.2 13.8-19 6.2-27.7-3.9-4.4-8.2-6.3-14.2-6.3-5.6 0-9.2 1.8-13.3 6.5-3.9 4.3-4.6 7.1-3.9 14.1l.6 5.4-8.2 5.9c-20.4 14.6-39.4 21.4-50.8 18-8.6-2.6-16.9-14.4-20.6-29.4-2.1-8.6-2.2-38.3-.1-48.4l1.3-6.4 5.5-.2c6.9-.3 11.6-2.3 15.7-6.5 13.2-13.6 4.1-36.2-14.6-36.4-19.3-.1-29.4 23.1-15.9 36.6 2.1 2.1 3.8 4.3 3.8 4.8 0 2.1-8 16.9-13.9 25.7-15.2 22.8-30.8 31.4-43.2 24.1-17.3-10.2-34.5-44.1-45.5-89.5-1.9-7.7-3.4-15-3.4-16 0-1.5 1.2-2.3 4.2-3.3 13-3.8 22.1-17.7 20.5-31.2-2.2-18.6-20.8-30.9-38.3-25.4m-2.8 175.7c2.4 1.1 5.8 3.7 7.7 5.9l3.5 3.8 3.8-3.9c10.5-10.7 24.4-10.6 34 .4 10.5 12 8.4 24.5-7.3 41.9-11.8 13.1-29.4 29.3-31.2 28.6-.5-.1-7.6-6.8-15.8-14.8-24.7-24.1-30.6-35-25.9-48.3 4.6-12.7 19.5-19.3 31.2-13.6"/>
</svg>
